<?xml version="1.0" standalone="no"?>
<!DOCTYPE svg PUBLIC "-//W3C//DTD SVG 20010904//EN"
 "http://www.w3.org/TR/2001/REC-SVG-20010904/DTD/svg10.dtd">
<svg version="1.0" xmlns="http://www.w3.org/2000/svg"
 width="846.000000pt" height="681.000000pt" viewBox="0 0 846.000000 681.000000"
 preserveAspectRatio="xMidYMid meet">

<g transform="translate(0.000000,681.000000) scale(0.100000,-0.100000)"
fill="#000000" stroke="none">
<path d="M2870 6731 c0 -5 -16 -12 -35 -15 -19 -4 -35 -11 -35 -16 0 -6 -7
-10 -15 -10 -8 0 -23 -9 -32 -20 -10 -11 -21 -20 -26 -20 -8 0 -29 -16 -50
-38 -7 -7 -45 -46 -86 -86 -40 -41 -78 -78 -83 -84 -22 -21 -188 -188 -200
-200 -7 -7 -38 -38 -69 -70 l-56 -57 41 -42 c42 -44 51 -53 152 -154 33 -32
78 -78 101 -101 24 -24 69 -69 100 -100 32 -32 70 -70 84 -84 15 -15 53 -53
85 -84 33 -32 68 -70 79 -84 20 -25 65 -36 65 -16 0 6 40 10 100 10 55 0 100
-4 100 -9 0 -4 19 -11 41 -14 23 -3 45 -10 48 -15 3 -5 17 -13 31 -17 13 -4
30 -13 37 -19 31 -28 43 -36 50 -36 12 0 40 -34 47 -58 4 -11 13 -23 21 -26 8
-3 15 -12 15 -21 0 -8 4 -15 10 -15 5 0 12 -17 16 -37 4 -21 12 -41 18 -45 7
-5 11 -58 11 -155 l0 -148 304 -305 305 -304 158 -1 c110 0 161 -4 166 -12 4
-6 20 -15 35 -18 15 -4 27 -11 27 -16 0 -5 5 -9 11 -9 7 0 22 -11 34 -24 12
-13 32 -27 43 -30 12 -4 25 -18 28 -31 3 -13 15 -27 25 -30 10 -4 22 -17 25
-31 3 -13 10 -24 14 -24 4 0 11 -12 15 -27 3 -15 12 -31 18 -35 17 -10 17
-296 0 -306 -6 -4 -15 -20 -18 -35 -4 -15 -11 -27 -15 -27 -4 0 -11 -11 -14
-25 -4 -14 -11 -25 -16 -25 -6 0 -10 -5 -10 -10 0 -15 -80 -90 -96 -90 -7 0
-15 -9 -19 -20 -4 -13 -19 -22 -43 -26 -20 -4 -40 -11 -43 -16 -3 -4 -35 -11
-72 -15 -37 -3 -67 -10 -67 -14 0 -5 -7 -9 -15 -9 -8 0 -15 4 -15 9 0 4 -32
11 -72 13 -40 3 -74 11 -76 16 -2 6 -19 14 -38 18 -19 3 -34 10 -34 15 0 5 -4
9 -9 9 -13 0 -141 128 -141 141 0 5 -4 9 -9 9 -5 0 -13 15 -16 33 -4 17 -12
35 -17 38 -5 3 -12 34 -15 68 -3 33 -10 61 -14 61 -12 0 -12 47 0 52 4 2 11
40 15 85 l6 81 -76 75 c-42 41 -88 86 -101 100 -33 32 -138 137 -170 170 -14
13 -59 58 -99 98 -41 41 -87 87 -104 102 l-30 28 0 -785 c0 -700 2 -786 16
-800 8 -9 20 -16 26 -16 15 0 125 -115 133 -139 3 -12 10 -21 15 -21 5 0 12
-15 15 -32 4 -18 13 -36 19 -40 16 -10 15 -286 -1 -296 -6 -4 -15 -20 -18 -35
-4 -15 -11 -27 -16 -27 -5 0 -9 -7 -9 -15 0 -9 -7 -18 -15 -21 -8 -4 -15 -13
-15 -21 0 -20 -73 -93 -93 -93 -8 0 -17 -7 -21 -15 -3 -8 -12 -15 -21 -15 -8
0 -15 -4 -15 -10 0 -5 -17 -12 -37 -16 -21 -4 -41 -11 -45 -17 -8 -13 -238
-13 -247 1 -3 5 -21 13 -38 17 -18 3 -33 10 -33 15 0 4 -12 11 -26 14 -25 7
-42 20 -111 88 -43 42 -52 54 -59 82 -3 14 -10 26 -14 26 -5 0 -12 15 -15 32
-4 18 -12 36 -18 40 -14 9 -14 237 0 246 6 4 13 24 17 45 4 20 11 37 16 37 6
0 10 7 10 15 0 9 7 18 15 21 8 4 15 12 15 20 0 18 76 94 94 94 8 0 16 7 20 15
3 8 12 15 21 15 8 0 15 5 15 10 0 6 7 10 15 10 13 0 15 97 15 811 0 802 0 811
-20 816 -11 3 -20 9 -20 14 0 5 -6 9 -14 9 -22 0 -144 125 -152 154 -3 14 -10
26 -15 26 -4 0 -11 17 -15 38 -4 20 -11 40 -17 44 -14 9 -13 241 2 246 21 7
11 56 -15 77 -14 11 -38 32 -52 48 -15 15 -60 60 -101 101 -40 40 -85 85 -98
99 -33 32 -138 137 -170 170 -14 13 -60 59 -102 101 -42 42 -84 83 -93 93 -16
15 -23 11 -98 -63 -97 -96 -86 -85 -177 -177 -42 -41 -80 -79 -85 -85 -13 -13
-187 -187 -200 -200 -13 -13 -157 -157 -170 -170 -13 -13 -191 -190 -200 -200
-4 -4 -42 -41 -84 -83 -95 -95 -109 -109 -200 -200 -41 -41 -78 -78 -84 -84
-13 -13 -186 -186 -202 -203 -7 -7 -47 -46 -88 -87 -165 -166 -190 -192 -190
-204 0 -6 -4 -11 -10 -11 -5 0 -12 -11 -16 -25 -3 -14 -10 -25 -14 -25 -4 0
-11 -12 -15 -27 -3 -15 -12 -31 -18 -35 -16 -10 -15 -237 0 -246 6 -4 15 -20
18 -35 4 -15 11 -27 16 -27 5 0 9 -6 9 -14 0 -8 34 -48 76 -89 42 -41 88 -86
101 -100 33 -32 138 -137 170 -170 14 -13 59 -58 100 -100 42 -41 87 -86 100
-100 14 -13 59 -58 100 -100 91 -91 79 -79 170 -170 93 -93 107 -107 200 -200
92 -91 80 -79 169 -168 41 -41 85 -85 99 -99 14 -14 59 -59 100 -100 41 -41
87 -87 101 -101 34 -34 140 -140 170 -170 13 -13 58 -58 100 -100 42 -42 88
-88 101 -102 14 -13 59 -58 100 -100 91 -91 79 -79 170 -170 94 -93 108 -107
199 -198 41 -41 79 -79 85 -85 6 -7 45 -45 85 -85 41 -41 87 -87 104 -102 16
-16 30 -32 30 -37 0 -5 11 -12 25 -16 14 -3 25 -10 25 -14 0 -4 12 -11 27 -15
15 -3 31 -12 35 -18 10 -16 236 -16 246 -1 4 6 20 14 36 18 17 4 40 18 53 32
12 13 25 24 28 24 9 0 28 18 125 115 50 50 94 94 99 99 11 11 156 155 169 168
13 13 187 187 200 200 13 13 156 157 171 172 15 14 189 188 200 200 11 11 155
155 170 170 50 50 191 190 199 198 13 13 356 357 371 372 9 9 147 147 197 197
15 15 159 158 172 171 13 13 187 187 200 200 99 100 161 162 168 169 5 5 41
40 81 79 39 38 74 78 78 90 3 11 10 20 15 20 5 0 11 13 15 30 4 16 11 30 16
30 5 0 9 11 9 24 0 13 5 26 11 28 6 2 10 40 10 98 0 58 -4 96 -10 98 -6 2 -11
12 -11 23 0 10 -4 19 -9 19 -5 0 -11 14 -15 30 -3 17 -17 41 -31 54 -14 13
-25 27 -25 31 0 6 -25 34 -105 115 -5 5 -45 45 -88 87 -42 43 -81 82 -86 87
-11 11 -186 186 -197 197 -12 11 -161 161 -174 174 -6 6 -50 49 -98 97 -48 48
-91 92 -97 98 -5 5 -51 51 -101 101 -51 50 -96 96 -102 101 -13 13 -153 154
-170 170 -16 17 -187 188 -198 199 -12 11 -156 155 -170 170 -15 15 -189 188
-202 201 -13 13 -157 157 -170 170 -46 47 -194 195 -200 200 -172 172 -360
360 -369 370 -20 22 -42 38 -50 38 -5 0 -16 9 -26 20 -9 11 -24 20 -32 20 -8
0 -15 4 -15 10 0 5 -16 12 -35 16 -19 3 -35 10 -35 15 0 5 -47 9 -105 9 -58 0
-105 -4 -105 -9z"/>
<path d="M6764 2930 c-90 -40 -138 -154 -113 -270 19 -91 41 -123 113 -161 31
-17 57 -21 126 -21 96 0 141 17 190 70 30 33 60 118 60 168 0 40 -35 147 -50
152 -6 2 -10 10 -10 18 0 8 -7 14 -15 14 -8 0 -15 4 -15 9 0 4 -19 16 -43 25
-59 22 -189 21 -243 -4z"/>
<path d="M7640 2647 c0 -91 -62 -246 -121 -299 -43 -39 -122 -76 -179 -84
l-50 -7 0 -123 0 -124 99 0 100 0 4 -422 c4 -458 7 -486 62 -586 31 -57 94
-107 170 -136 41 -15 79 -18 205 -19 163 0 225 10 360 63 30 12 63 24 73 27
15 5 17 12 12 32 -3 14 -9 42 -14 61 -4 19 -12 44 -18 55 -6 11 -13 37 -17 58
-8 42 -20 45 -86 22 -26 -9 -79 -15 -137 -15 -111 0 -144 14 -174 72 -18 35
-19 63 -19 413 l0 375 200 0 200 0 0 135 0 135 -200 0 -200 0 0 205 0 205
-135 0 -135 0 0 -43z"/>
<path d="M5530 2250 c-215 -15 -392 -120 -465 -275 -30 -64 -55 -173 -55 -240
0 -68 26 -177 56 -235 27 -51 113 -150 131 -150 4 0 16 -7 26 -14 16 -13 10
-22 -85 -117 -57 -57 -111 -119 -120 -137 -26 -48 -24 -137 3 -182 24 -40 67
-79 88 -80 7 0 -12 -27 -43 -60 -73 -79 -96 -133 -96 -222 0 -78 21 -134 67
-183 29 -31 87 -75 99 -75 3 0 20 -6 37 -14 95 -41 268 -66 458 -66 218 0 378
31 524 101 60 28 161 124 189 180 46 89 60 247 31 342 -18 59 -64 128 -99 146
-14 8 -26 18 -26 23 0 4 -5 8 -11 8 -6 0 -25 6 -42 14 -91 39 -301 69 -582 82
-77 3 -161 9 -187 13 l-48 6 43 65 c36 54 47 64 67 62 14 -2 88 -6 165 -9 156
-5 238 9 351 63 99 47 169 115 216 213 30 63 32 72 32 186 1 126 -11 170 -65
247 -11 14 -19 28 -19 31 0 2 33 7 73 11 39 4 93 9 120 13 l47 6 0 113 0 114
-269 0 c-147 0 -281 4 -297 9 -38 12 -207 18 -314 11z m260 -288 c37 -23 90
-83 98 -112 4 -14 7 -64 7 -111 0 -69 -4 -91 -17 -106 -10 -11 -18 -23 -18
-26 0 -14 -38 -44 -81 -65 -63 -30 -129 -37 -202 -21 -58 12 -137 52 -137 70
0 4 -6 14 -14 21 -35 35 -35 200 0 263 32 57 90 95 159 106 59 10 176 -1 205
-19z m-240 -1232 c235 -13 378 -30 395 -46 7 -8 18 -14 24 -14 12 0 15 -25 11
-80 -3 -49 -53 -91 -134 -113 -90 -24 -342 -24 -432 0 -89 24 -119 56 -118
126 0 40 7 62 28 95 16 23 34 42 40 42 6 0 90 -5 186 -10z"/>
<path d="M6567 2228 c-16 -69 -29 -168 -24 -180 3 -8 40 -27 84 -43 43 -15 81
-32 85 -39 4 -6 8 -205 8 -443 l0 -431 -30 -11 c-17 -5 -57 -13 -90 -17 l-60
-7 0 -103 0 -104 385 0 385 0 0 105 0 105 -37 1 c-21 0 -60 6 -88 13 l-50 11
-3 583 -2 582 -279 0 -279 0 -5 -22z"/>
</g>
</svg>
